<?xml version="1.0" encoding="utf-8"?>
<!-- Generator: Adobe Illustrator 24.3.0, SVG Export Plug-In . SVG Version: 6.00 Build 0)  -->
<svg version="1.1" id="logo" xmlns="http://www.w3.org/2000/svg" xmlns:xlink="http://www.w3.org/1999/xlink" x="0px" y="0px"
	 viewBox="0 0 98 42" style="enable-background:new 0 0 98 42;" xml:space="preserve">
<style type="text/css">
	.st0{enable-background:new    ;}
	.st1{fill:#FFFFFF;}
</style>
<g class="st0">
	<path class="st1" d="M4.4,32.9c-1.1-0.5-1.9-1.2-2.4-2c-0.6-0.9-0.9-1.9-0.9-3c0-1,0.2-1.8,0.6-2.6c0.4-0.8,1-1.4,1.6-1.9
		c0.7-0.5,1.5-0.7,2.3-0.7c0.8,0,1.4,0.2,1.9,0.6s0.9,0.9,1,1.6c-1.1,0-2.1,0.3-2.7,0.9c-0.7,0.6-1,1.4-1,2.5c0,0.9,0.3,1.7,0.9,2.3
		C6.3,31,7,31.3,8,31.3c1.2,0,2.1-0.4,2.9-1.2c0.8-0.8,1.1-1.8,1.1-3c0-1-0.3-2-0.9-2.9c-0.6-0.9-1.4-2-2.6-3.4
		c-1.2-1.4-2.1-2.5-2.7-3.5c-0.6-1-0.9-2.1-0.9-3.2C5,13,5.3,12,5.9,11c0.6-0.9,1.5-1.6,2.6-2.2s2.4-0.8,3.8-0.8
		c1.8,0,3.2,0.4,4.3,1.3c1.1,0.8,1.6,2,1.6,3.4c0,0.9-0.2,1.7-0.7,2.2s-1.1,0.9-1.8,0.9c-0.8,0-1.5-0.3-2-1c0.4-0.3,0.7-0.7,1-1.2
		s0.4-1,0.4-1.6c0-0.7-0.2-1.3-0.6-1.7c-0.4-0.4-1-0.6-1.7-0.6c-0.9,0-1.6,0.3-2.2,0.9S9.7,12,9.7,13c0,0.9,0.3,1.7,0.8,2.5
		c0.5,0.8,1.3,1.7,2.4,2.9c0.9,0.9,1.6,1.8,2.1,2.4c0.5,0.7,1,1.5,1.4,2.4c0.4,0.9,0.6,1.9,0.6,2.9c0,1.4-0.4,2.7-1.2,3.8
		c-0.8,1.1-1.8,2-3.2,2.7c-1.4,0.7-2.9,1-4.5,1C6.7,33.6,5.5,33.4,4.4,32.9z"/>
	<path class="st1" d="M19.6,31.9c-0.8-0.9-1.3-2.2-1.3-4c0-1.6,0.3-3.3,1-5.1c0.6-1.8,1.6-3.3,2.9-4.6c1.3-1.2,2.8-1.9,4.6-1.9
		c0.9,0,1.6,0.2,2,0.5c0.4,0.3,0.7,0.7,0.7,1.2v0.2l0.4-1.7h4.8l-2.4,11.2c-0.1,0.3-0.1,0.7-0.1,1.1c0,0.9,0.5,1.4,1.4,1.4
		c0.6,0,1.1-0.3,1.6-0.9c0.5-0.6,0.8-1.3,1.1-2.2h1.4c-0.8,2.4-1.8,4-3,4.8c-1.2,0.8-2.4,1.3-3.6,1.3c-0.9,0-1.7-0.3-2.2-0.8
		s-0.9-1.3-1-2.3c-0.6,0.9-1.3,1.6-2.1,2.2c-0.8,0.6-1.7,0.8-2.8,0.8C21.5,33.2,20.5,32.8,19.6,31.9z M26.5,29.2
		c0.5-0.5,0.9-1.2,1.1-2.1l1.6-7.5c0-0.3-0.1-0.6-0.3-0.8c-0.2-0.3-0.6-0.4-1-0.4c-0.9,0-1.7,0.5-2.4,1.5c-0.7,1-1.3,2.3-1.7,3.7
		c-0.4,1.4-0.6,2.7-0.6,3.8c0,1.1,0.2,1.8,0.5,2.1c0.3,0.3,0.7,0.5,1.2,0.5C25.5,30,26,29.7,26.5,29.2z"/>
	<path class="st1" d="M53.3,32.1c-0.6-0.7-0.9-1.6-0.9-2.7c0-0.5,0.1-1,0.2-1.6c0.1-0.6,0.2-1.1,0.3-1.7c0.1-0.5,0.2-0.9,0.2-1.1
		c0.2-0.8,0.3-1.5,0.5-2.3c0.2-0.7,0.2-1.4,0.2-1.8c0-1.1-0.4-1.7-1.2-1.7c-0.6,0-1.1,0.3-1.5,0.8c-0.4,0.6-0.8,1.3-1.1,2.2L47.8,33
		h-4.8l2.4-11.4c0.1-0.3,0.1-0.5,0.1-0.8c0-1-0.3-1.5-1-1.5c-0.6,0-1.1,0.3-1.6,0.8c-0.5,0.6-0.8,1.3-1.1,2.2L39.7,33h-4.8l3.5-16.5
		h4.8l-0.4,1.7c1.1-1.3,2.5-1.9,4-1.9c1.9,0,3.1,0.9,3.4,2.8c1.2-1.9,2.7-2.8,4.6-2.8c1.1,0,2,0.3,2.7,0.9c0.7,0.6,1,1.6,1,2.8
		c0,0.6-0.1,1.3-0.2,2.1c-0.2,0.8-0.4,1.7-0.7,2.9c-0.2,0.7-0.3,1.3-0.5,2c-0.1,0.6-0.2,1.2-0.2,1.5c0,0.4,0.1,0.8,0.3,1
		c0.2,0.2,0.5,0.4,1,0.4c0.7,0,1.2-0.2,1.6-0.7c0.4-0.5,0.8-1.2,1.2-2.2h1.4c-0.8,2.4-1.8,4-2.8,4.9c-1.1,0.8-2.2,1.2-3.3,1.2
		C54.9,33.2,53.9,32.8,53.3,32.1z"/>
	<path class="st1" d="M63.5,15.3h4.8l-0.5,2.5c1.1-0.9,2.4-1.4,3.9-1.4c1.2,0,2.2,0.4,2.9,1.2c0.7,0.8,1.1,2.1,1.1,4
		c0,1.7-0.3,3.5-0.8,5.3c-0.5,1.8-1.4,3.3-2.6,4.5c-1.2,1.2-2.8,1.9-4.8,1.9c-1.4,0-2.3-0.4-2.8-1.2L63,40.1l-5,1.2L63.5,15.3z
		 M69.1,28.8c0.7-1,1.2-2.2,1.5-3.5c0.3-1.4,0.5-2.7,0.5-3.8c0-1.8-0.6-2.7-1.7-2.7c-0.4,0-0.8,0.1-1.2,0.4
		c-0.4,0.3-0.8,0.7-1.1,1.2l-1.9,9.2c0.2,0.5,0.6,0.8,1.3,0.8C67.5,30.3,68.4,29.8,69.1,28.8z"/>
	<path class="st1" d="M77.1,32.2c-0.6-0.7-1-1.7-1-3c0-0.5,0.1-1.3,0.3-2.1L80,10.6l4.9-0.7L81,27.7c-0.1,0.3-0.1,0.7-0.1,1.1
		c0,0.4,0.1,0.8,0.3,0.9s0.6,0.3,1,0.3c0.6,0,1.2-0.3,1.8-0.8s0.9-1.2,1.2-2.1h1.4c-0.8,2.4-1.9,4-3.1,4.8c-1.3,0.8-2.5,1.3-3.8,1.3
		C78.6,33.2,77.8,32.9,77.1,32.2z"/>
	<path class="st1" d="M86.1,31.9c-0.9-0.8-1.4-2.2-1.4-4c0-1.5,0.3-3.2,0.9-5c0.6-1.8,1.6-3.4,2.9-4.7c1.3-1.3,3-2,5.1-2
		c2.4,0,3.6,1.1,3.6,3.2c0,1.2-0.4,2.4-1.1,3.4c-0.7,1-1.6,1.9-2.8,2.5s-2.4,1-3.7,1.1c0,0.5-0.1,0.8-0.1,1c0,1.8,0.7,2.7,2,2.7
		c0.6,0,1.3-0.2,2-0.5s1.3-0.7,1.9-1.3c-0.6,3.3-2.5,4.9-5.7,4.9C88.3,33.2,87,32.8,86.1,31.9z M92.3,23.9c0.7-0.5,1.3-1.2,1.8-2
		s0.7-1.7,0.7-2.6c0-0.9-0.3-1.4-0.8-1.4c-0.8,0-1.5,0.7-2.3,2.1c-0.8,1.4-1.3,3-1.7,4.7C90.8,24.7,91.6,24.5,92.3,23.9z"/>
</g>
</svg>
